<?xml version="1.0" encoding="UTF-8" standalone="no"?>
<!DOCTYPE svg PUBLIC "-//W3C//DTD SVG 1.1//EN" "http://www.w3.org/Graphics/SVG/1.1/DTD/svg11.dtd">
<svg width="100%" height="100%" viewBox="0 0 571 125" version="1.1" xmlns="http://www.w3.org/2000/svg" xmlns:xlink="http://www.w3.org/1999/xlink" xml:space="preserve" xmlns:serif="http://www.serif.com/" style="fill-rule:evenodd;clip-rule:evenodd;stroke-linejoin:round;stroke-miterlimit:2;">
    <g transform="matrix(3.125,0,0,3.125,0,0)">
        <g transform="matrix(4.16667,0,0,4.16667,-635,-4712)">
            <path d="M159.527,1132L158.853,1133.29C158.663,1133.12 158.371,1132.96 157.974,1132.79C157.578,1132.63 157.238,1132.54 156.955,1132.54C156.065,1132.54 155.361,1132.85 154.848,1133.45C154.332,1134.05 154.074,1134.86 154.074,1135.87C154.074,1136.84 154.325,1137.61 154.831,1138.18C155.336,1138.76 156.025,1139.05 156.894,1139.05C157.466,1139.05 157.938,1138.89 158.31,1138.58L158.31,1136.79L157.054,1136.79L157.054,1135.42L159.92,1135.42L159.92,1139.48C159.536,1139.8 159.043,1140.04 158.439,1140.22C157.834,1140.39 157.232,1140.48 156.634,1140.48C155.334,1140.48 154.302,1140.06 153.541,1139.2C152.78,1138.35 152.4,1137.23 152.4,1135.83C152.4,1134.43 152.814,1133.3 153.643,1132.42C154.473,1131.55 155.587,1131.11 156.991,1131.11C157.984,1131.11 158.83,1131.41 159.527,1132ZM167.174,1137.49L162.435,1137.49C162.465,1138.02 162.647,1138.43 162.981,1138.72C163.315,1139.02 163.765,1139.16 164.331,1139.16C165.039,1139.16 165.576,1138.98 165.944,1138.62L166.544,1139.8C165.999,1140.24 165.187,1140.46 164.105,1140.46C163.095,1140.46 162.296,1140.16 161.706,1139.57C161.119,1138.97 160.825,1138.15 160.825,1137.08C160.825,1136.04 161.148,1135.19 161.793,1134.54C162.44,1133.89 163.213,1133.57 164.118,1133.57C165.08,1133.57 165.851,1133.86 166.432,1134.43C167.014,1135.01 167.305,1135.74 167.305,1136.63C167.305,1136.82 167.261,1137.1 167.174,1137.49ZM162.499,1136.32L165.745,1136.32C165.638,1135.35 165.103,1134.86 164.141,1134.86C163.26,1134.86 162.712,1135.35 162.499,1136.32ZM168.113,1137C168.113,1135.99 168.404,1135.16 168.988,1134.53C169.571,1133.89 170.342,1133.57 171.3,1133.57C172.306,1133.57 173.086,1133.88 173.644,1134.49C174.2,1135.1 174.479,1135.94 174.479,1137C174.479,1138.06 174.196,1138.9 173.629,1139.52C173.061,1140.14 172.285,1140.46 171.3,1140.46C170.292,1140.46 169.51,1140.14 168.952,1139.51C168.392,1138.88 168.113,1138.04 168.113,1137ZM169.723,1137C169.723,1138.46 170.249,1139.19 171.3,1139.19C171.782,1139.19 172.162,1139 172.446,1138.62C172.727,1138.24 172.868,1137.7 172.868,1137C172.868,1135.56 172.346,1134.84 171.3,1134.84C170.816,1134.84 170.433,1135.03 170.15,1135.41C169.865,1135.79 169.723,1136.32 169.723,1137Z" style="fill:rgb(16,140,3);fill-rule:nonzero;"/>
        </g>
        <g transform="matrix(4.16667,0,0,4.16667,-635,-4712.96)">
            <path d="M180.031,1140.58L180.031,1140.18C179.902,1140.32 179.686,1140.45 179.38,1140.55C179.075,1140.66 178.758,1140.71 178.433,1140.71C177.507,1140.71 176.78,1140.42 176.249,1139.83C175.719,1139.24 175.452,1138.43 175.452,1137.38C175.452,1136.33 175.757,1135.47 176.366,1134.81C176.976,1134.16 177.739,1133.83 178.655,1133.83C179.16,1133.83 179.618,1133.93 180.031,1134.14L180.031,1131.48L181.578,1131.11L181.578,1140.58L180.031,1140.58ZM180.031,1135.54C179.701,1135.28 179.356,1135.14 178.997,1135.14C178.376,1135.14 177.9,1135.33 177.564,1135.71C177.23,1136.09 177.063,1136.63 177.063,1137.34C177.063,1138.72 177.729,1139.41 179.058,1139.41C179.206,1139.41 179.39,1139.36 179.606,1139.27C179.823,1139.18 179.965,1139.09 180.031,1139L180.031,1135.54ZM189.037,1137.74L184.298,1137.74C184.328,1138.27 184.509,1138.68 184.843,1138.98C185.177,1139.27 185.627,1139.42 186.194,1139.42C186.902,1139.42 187.439,1139.24 187.807,1138.87L188.407,1140.05C187.861,1140.49 187.05,1140.71 185.968,1140.71C184.957,1140.71 184.158,1140.42 183.569,1139.82C182.981,1139.23 182.687,1138.4 182.687,1137.34C182.687,1136.29 183.011,1135.45 183.655,1134.8C184.302,1134.15 185.076,1133.83 185.98,1133.83C186.942,1133.83 187.714,1134.11 188.295,1134.69C188.876,1135.26 189.168,1135.99 189.168,1136.88C189.168,1137.07 189.123,1137.36 189.037,1137.74ZM184.361,1136.58L187.608,1136.58C187.5,1135.6 186.965,1135.12 186.004,1135.12C185.122,1135.12 184.575,1135.6 184.361,1136.58ZM194.667,1140.58L194.667,1136.75C194.667,1136.18 194.56,1135.77 194.342,1135.51C194.126,1135.25 193.773,1135.12 193.283,1135.12C193.057,1135.12 192.814,1135.18 192.556,1135.31C192.298,1135.44 192.097,1135.6 191.953,1135.79L191.953,1140.58L190.406,1140.58L190.406,1133.95L191.52,1133.95L191.803,1134.57C192.224,1134.07 192.845,1133.83 193.666,1133.83C194.454,1133.83 195.075,1134.06 195.532,1134.54C195.986,1135.01 196.215,1135.67 196.215,1136.51L196.215,1140.58L194.667,1140.58Z" style="fill:white;fill-rule:nonzero;"/>
        </g>
    </g>
</svg>
