<?xml version="1.0" encoding="UTF-8" standalone="no"?>
<!DOCTYPE svg PUBLIC "-//W3C//DTD SVG 1.1//EN" "http://www.w3.org/Graphics/SVG/1.1/DTD/svg11.dtd">
<svg width="100%" height="100%" viewBox="0 0 50 45" version="1.1" xmlns="http://www.w3.org/2000/svg" xmlns:xlink="http://www.w3.org/1999/xlink" xml:space="preserve" xmlns:serif="http://www.serif.com/" style="fill-rule:evenodd;clip-rule:evenodd;stroke-linejoin:round;stroke-miterlimit:2;">
    <g transform="matrix(3.125,0,0,3.125,0,0)">
        <g transform="matrix(4.16667,0,0,4.16667,-1909.13,-4795.71)">
            <path d="M461.718,1150.97C461.669,1150.97 461.622,1150.99 461.581,1151C461.539,1151.02 461.34,1151.1 461.039,1151.23C460.737,1151.36 460.345,1151.52 459.957,1151.68C459.181,1152.01 458.418,1152.33 458.418,1152.33L458.427,1152.33C458.427,1152.33 458.374,1152.35 458.319,1152.38C458.291,1152.4 458.26,1152.43 458.233,1152.47C458.206,1152.51 458.185,1152.57 458.193,1152.63C458.206,1152.74 458.274,1152.8 458.324,1152.83C458.373,1152.87 458.421,1152.89 458.421,1152.89L458.422,1152.89L459.138,1153.13C459.17,1153.23 459.356,1153.84 459.4,1153.98C459.427,1154.07 459.452,1154.12 459.485,1154.16C459.5,1154.18 459.518,1154.2 459.54,1154.21C459.549,1154.22 459.558,1154.22 459.567,1154.22C459.57,1154.23 459.573,1154.23 459.576,1154.23L459.569,1154.22C459.571,1154.23 459.573,1154.23 459.574,1154.23L459.592,1154.23C459.705,1154.27 459.796,1154.2 459.796,1154.2L459.801,1154.19L460.223,1153.81L460.932,1154.35L460.948,1154.36C461.095,1154.42 461.245,1154.39 461.324,1154.32C461.403,1154.26 461.434,1154.18 461.434,1154.18L461.439,1154.16L461.987,1151.36C462.002,1151.29 462.006,1151.23 461.989,1151.16C461.972,1151.1 461.928,1151.04 461.874,1151.01C461.821,1150.98 461.767,1150.97 461.718,1150.97ZM461.703,1151.27C461.703,1151.28 461.704,1151.28 461.7,1151.3L461.158,1154.07C461.156,1154.08 461.152,1154.08 461.141,1154.09C461.13,1154.1 461.12,1154.11 461.073,1154.09L460.207,1153.42L459.684,1153.9L459.794,1153.2C459.794,1153.2 461.15,1151.94 461.209,1151.88C461.267,1151.83 461.248,1151.82 461.248,1151.82C461.252,1151.75 461.159,1151.8 461.159,1151.8L459.375,1152.9L458.519,1152.61L458.517,1152.61L458.522,1152.61L458.526,1152.6L458.531,1152.6C458.531,1152.6 459.294,1152.28 460.071,1151.95C460.459,1151.79 460.851,1151.63 461.152,1151.5C461.453,1151.37 461.676,1151.28 461.688,1151.27L461.703,1151.27Z" style="fill:rgb(221,221,221);fill-rule:nonzero;"/>
        </g>
    </g>
</svg>
