<?xml version="1.0" encoding="UTF-8" standalone="no"?>
<!DOCTYPE svg PUBLIC "-//W3C//DTD SVG 1.1//EN" "http://www.w3.org/Graphics/SVG/1.1/DTD/svg11.dtd">
<svg width="100%" height="100%" viewBox="0 0 77 77" version="1.1" xmlns="http://www.w3.org/2000/svg" xmlns:xlink="http://www.w3.org/1999/xlink" xml:space="preserve" xmlns:serif="http://www.serif.com/" style="fill-rule:evenodd;clip-rule:evenodd;stroke-linejoin:round;stroke-miterlimit:2;">
    <g transform="matrix(3.125,0,0,3.125,0,0)">
        <g transform="matrix(4.16667,0,0,4.16667,-1760.99,-4720.82)">
            <path d="M426.763,1138.85L426.843,1138.85C427.135,1138.85 427.378,1138.74 427.57,1138.54L427.576,1138.53C427.64,1138.45 427.712,1138.38 427.789,1138.31C427.843,1138.26 427.898,1138.21 427.949,1138.15C428.08,1138.02 428.144,1137.86 428.143,1137.71C428.143,1137.55 428.078,1137.4 427.946,1137.27L427.272,1136.6C427.146,1136.47 426.996,1136.4 426.837,1136.4C426.68,1136.4 426.528,1136.46 426.399,1136.59L426.026,1136.97L425.948,1136.93C425.905,1136.91 425.865,1136.88 425.829,1136.86C425.468,1136.63 425.141,1136.34 424.828,1135.95C424.681,1135.77 424.581,1135.61 424.509,1135.45C424.604,1135.36 424.693,1135.27 424.78,1135.19L424.884,1135.08C425.02,1134.94 425.087,1134.79 425.087,1134.64C425.087,1134.49 425.02,1134.33 424.884,1134.2L424.549,1133.86C424.51,1133.82 424.472,1133.78 424.435,1133.75C424.36,1133.67 424.283,1133.59 424.205,1133.52C424.08,1133.4 423.931,1133.33 423.774,1133.33C423.618,1133.33 423.467,1133.4 423.337,1133.52L422.916,1133.94C422.754,1134.1 422.662,1134.3 422.642,1134.52L422.642,1134.53C422.621,1134.8 422.671,1135.09 422.801,1135.45C423,1135.98 423.3,1136.48 423.743,1137.02C424.283,1137.66 424.932,1138.17 425.673,1138.53L425.674,1138.53C425.958,1138.66 426.339,1138.82 426.763,1138.85ZM424.04,1136.77C423.625,1136.27 423.348,1135.81 423.164,1135.31C423.052,1135.01 423.01,1134.78 423.027,1134.56C423.039,1134.42 423.091,1134.31 423.189,1134.21L423.606,1133.79C423.66,1133.74 423.718,1133.71 423.775,1133.71C423.832,1133.71 423.886,1133.74 423.939,1133.8L423.94,1133.8C424.014,1133.87 424.086,1133.94 424.161,1134.01C424.199,1134.05 424.238,1134.09 424.278,1134.13L424.613,1134.47C424.67,1134.52 424.702,1134.58 424.702,1134.64C424.702,1134.69 424.67,1134.75 424.613,1134.81C424.577,1134.84 424.542,1134.88 424.507,1134.91C424.404,1135.02 424.308,1135.12 424.201,1135.21L424.193,1135.22C424.079,1135.33 424.096,1135.44 424.124,1135.53C424.125,1135.53 424.126,1135.53 424.127,1135.54L424.128,1135.54C424.216,1135.75 424.34,1135.95 424.53,1136.19C424.871,1136.61 425.229,1136.94 425.626,1137.19C425.676,1137.22 425.728,1137.25 425.779,1137.27C425.823,1137.29 425.863,1137.31 425.898,1137.34L425.915,1137.34C425.96,1137.37 426.004,1137.38 426.049,1137.38C426.16,1137.38 426.231,1137.31 426.254,1137.28L426.674,1136.87C426.727,1136.81 426.783,1136.78 426.84,1136.78C426.908,1136.78 426.963,1136.83 426.999,1136.87L427.676,1137.54C427.732,1137.6 427.757,1137.65 427.759,1137.7C427.764,1137.77 427.719,1137.84 427.672,1137.89L427.671,1137.89C427.625,1137.94 427.576,1137.98 427.524,1138.03C427.444,1138.11 427.361,1138.19 427.286,1138.28C427.168,1138.41 427.028,1138.46 426.846,1138.46L426.791,1138.46C426.43,1138.44 426.095,1138.3 425.844,1138.18C425.15,1137.84 424.544,1137.37 424.04,1136.77ZM425.859,1134.05C425.754,1134.03 425.655,1134.1 425.638,1134.21L425.637,1134.21C425.62,1134.31 425.691,1134.41 425.795,1134.43C426.11,1134.48 426.397,1134.63 426.626,1134.86C426.854,1135.09 427.004,1135.37 427.057,1135.69C427.073,1135.78 427.155,1135.85 427.248,1135.85L427.28,1135.85C427.386,1135.83 427.457,1135.73 427.438,1135.62C427.371,1135.23 427.184,1134.87 426.899,1134.59C426.612,1134.3 426.253,1134.12 425.859,1134.05ZM428.3,1135.8L428.332,1135.8C428.438,1135.78 428.509,1135.68 428.49,1135.57C428.381,1134.93 428.076,1134.34 427.609,1133.88C427.141,1133.41 426.554,1133.11 425.908,1133L425.907,1133C425.802,1132.98 425.703,1133.05 425.686,1133.15C425.669,1133.26 425.74,1133.36 425.844,1133.38C426.409,1133.47 426.925,1133.74 427.336,1134.15C427.746,1134.56 428.013,1135.07 428.11,1135.64C428.125,1135.73 428.207,1135.8 428.3,1135.8Z" style="fill:white;fill-rule:nonzero;"/>
        </g>
    </g>
</svg>
