<?xml version="1.0" encoding="UTF-8" standalone="no"?>
<!DOCTYPE svg PUBLIC "-//W3C//DTD SVG 1.1//EN" "http://www.w3.org/Graphics/SVG/1.1/DTD/svg11.dtd">
<svg width="100%" height="100%" viewBox="0 0 51 30" version="1.1" xmlns="http://www.w3.org/2000/svg" xmlns:xlink="http://www.w3.org/1999/xlink" xml:space="preserve" xmlns:serif="http://www.serif.com/" style="fill-rule:evenodd;clip-rule:evenodd;stroke-linejoin:round;stroke-miterlimit:2;">
    <g transform="matrix(3.125,0,0,3.125,0,0)">
        <g transform="matrix(4.16667,0,0,4.16667,-1875.69,-4798.21)">
            <path d="M452.08,1153.8L452.314,1153.8C452.314,1153.8 452.385,1153.79 452.421,1153.75C452.454,1153.71 452.453,1153.65 452.453,1153.65C452.453,1153.65 452.448,1153.33 452.594,1153.29C452.738,1153.24 452.922,1153.59 453.117,1153.72C453.265,1153.83 453.377,1153.8 453.377,1153.8L453.9,1153.8C453.9,1153.8 454.173,1153.78 454.044,1153.56C454.033,1153.55 453.968,1153.41 453.655,1153.11C453.327,1152.81 453.371,1152.86 453.766,1152.33C454.006,1152.01 454.103,1151.82 454.073,1151.73C454.044,1151.65 453.867,1151.68 453.867,1151.68L453.279,1151.68C453.279,1151.68 453.236,1151.67 453.203,1151.69C453.172,1151.71 453.151,1151.76 453.151,1151.76C453.151,1151.76 453.058,1152 452.934,1152.21C452.672,1152.66 452.567,1152.68 452.524,1152.65C452.425,1152.59 452.45,1152.4 452.45,1152.26C452.45,1151.83 452.515,1151.65 452.322,1151.6C452.258,1151.59 452.211,1151.58 452.048,1151.57C451.838,1151.57 451.66,1151.57 451.56,1151.62C451.492,1151.66 451.441,1151.73 451.472,1151.73C451.511,1151.74 451.599,1151.76 451.646,1151.82C451.706,1151.9 451.704,1152.09 451.704,1152.09C451.704,1152.09 451.739,1152.59 451.623,1152.66C451.544,1152.7 451.435,1152.61 451.201,1152.21C451.082,1152 450.991,1151.77 450.991,1151.77C450.991,1151.77 450.974,1151.73 450.943,1151.71C450.905,1151.68 450.852,1151.67 450.852,1151.67L450.293,1151.68C450.293,1151.68 450.21,1151.68 450.179,1151.71C450.151,1151.75 450.177,1151.81 450.177,1151.81C450.177,1151.81 450.614,1152.84 451.11,1153.35C451.564,1153.83 452.08,1153.8 452.08,1153.8Z" style="fill:rgb(221,221,221);fill-rule:nonzero;"/>
        </g>
    </g>
</svg>
