<?xml version="1.0" encoding="UTF-8" standalone="no"?>
<!DOCTYPE svg PUBLIC "-//W3C//DTD SVG 1.1//EN" "http://www.w3.org/Graphics/SVG/1.1/DTD/svg11.dtd">
<svg width="100%" height="100%" viewBox="0 0 43 63" version="1.1" xmlns="http://www.w3.org/2000/svg" xmlns:xlink="http://www.w3.org/1999/xlink" xml:space="preserve" xmlns:serif="http://www.serif.com/" style="fill-rule:evenodd;clip-rule:evenodd;stroke-linejoin:round;stroke-miterlimit:2;">
    <g transform="matrix(3.125,0,0,3.125,0,0)">
        <g transform="matrix(4.16667,0,0,4.16667,-1590.5,-4792.96)">
            <path d="M383.335,1150.31C382.445,1150.31 381.72,1151.03 381.72,1151.92C381.72,1152.17 381.822,1152.46 381.961,1152.78C382.1,1153.09 382.278,1153.43 382.46,1153.74C382.823,1154.37 383.189,1154.89 383.189,1154.89L383.335,1155.11L383.48,1154.89C383.48,1154.89 383.846,1154.37 384.209,1153.74C384.391,1153.43 384.57,1153.09 384.708,1152.78C384.847,1152.46 384.95,1152.17 384.95,1151.92C384.95,1151.03 384.224,1150.31 383.335,1150.31ZM383.335,1150.66C384.031,1150.66 384.591,1151.22 384.591,1151.92C384.591,1152.06 384.514,1152.34 384.383,1152.63C384.253,1152.93 384.073,1153.26 383.895,1153.56C383.614,1154.05 383.438,1154.31 383.335,1154.46C383.231,1154.31 383.056,1154.05 382.774,1153.56C382.596,1153.26 382.416,1152.93 382.286,1152.63C382.156,1152.34 382.078,1152.06 382.078,1151.92C382.078,1151.22 382.639,1150.66 383.335,1150.66ZM383.335,1151.56C383.136,1151.56 382.976,1151.72 382.976,1151.92C382.976,1152.12 383.136,1152.28 383.335,1152.28C383.533,1152.28 383.693,1152.12 383.693,1151.92C383.693,1151.72 383.533,1151.56 383.335,1151.56Z" style="fill:rgb(221,221,221);fill-rule:nonzero;"/>
        </g>
    </g>
</svg>
