<?xml version="1.0" encoding="UTF-8" standalone="no"?>
<!DOCTYPE svg PUBLIC "-//W3C//DTD SVG 1.1//EN" "http://www.w3.org/Graphics/SVG/1.1/DTD/svg11.dtd">
<svg width="100%" height="100%" viewBox="0 0 50 50" version="1.1" xmlns="http://www.w3.org/2000/svg" xmlns:xlink="http://www.w3.org/1999/xlink" xml:space="preserve" xmlns:serif="http://www.serif.com/" style="fill-rule:evenodd;clip-rule:evenodd;stroke-linejoin:round;stroke-miterlimit:2;">
    <g transform="matrix(3.125,0,0,3.125,0,0)">
        <g transform="matrix(4.16667,0,0,4.16667,-1676.58,-4794.96)">
            <path d="M404.299,1150.79C403.24,1150.79 402.379,1151.65 402.379,1152.71C402.379,1153.76 403.24,1154.63 404.299,1154.63C405.358,1154.63 406.219,1153.76 406.219,1152.71C406.219,1151.65 405.358,1150.79 404.299,1150.79ZM404.299,1151.11C405.184,1151.11 405.899,1151.82 405.899,1152.71C405.899,1153.59 405.184,1154.31 404.299,1154.31C403.413,1154.31 402.699,1153.59 402.699,1152.71C402.699,1151.82 403.413,1151.11 404.299,1151.11ZM404.139,1151.43L404.139,1152.87L405.259,1152.87L405.259,1152.55L404.459,1152.55L404.459,1151.43L404.139,1151.43Z" style="fill:rgb(221,221,221);fill-rule:nonzero;"/>
        </g>
    </g>
</svg>
