<?xml version="1.0" encoding="UTF-8" standalone="no"?>
<!DOCTYPE svg PUBLIC "-//W3C//DTD SVG 1.1//EN" "http://www.w3.org/Graphics/SVG/1.1/DTD/svg11.dtd">
<svg width="100%" height="100%" viewBox="0 0 51 61" version="1.1" xmlns="http://www.w3.org/2000/svg" xmlns:xlink="http://www.w3.org/1999/xlink" xml:space="preserve" xmlns:serif="http://www.serif.com/" style="fill-rule:evenodd;clip-rule:evenodd;stroke-linejoin:round;stroke-miterlimit:2;">
    <g transform="matrix(3.125,0,0,3.125,0,0)">
        <g transform="matrix(4.16667,0,0,4.16667,-1841.69,-4793.33)">
            <path d="M445.846,1152.74C445.798,1152.54 445.628,1152.38 445.423,1152.36C444.939,1152.31 444.448,1152.31 443.96,1152.31C443.471,1152.31 442.981,1152.31 442.496,1152.36C442.292,1152.38 442.122,1152.54 442.074,1152.74C442.006,1153.04 442.005,1153.36 442.005,1153.67C442.005,1153.97 442.005,1154.3 442.073,1154.59C442.121,1154.8 442.291,1154.95 442.495,1154.98C442.98,1155.03 443.47,1155.03 443.959,1155.03C444.447,1155.03 444.938,1155.03 445.422,1154.98C445.627,1154.95 445.797,1154.8 445.845,1154.59C445.913,1154.3 445.913,1153.97 445.913,1153.67C445.913,1153.36 445.914,1153.04 445.846,1152.74ZM443.833,1154.48L443.597,1154.48L443.597,1154.34C443.503,1154.44 443.414,1154.5 443.327,1154.5C443.251,1154.5 443.199,1154.46 443.175,1154.4C443.162,1154.36 443.154,1154.3 443.154,1154.2L443.154,1153.17L443.39,1153.17L443.39,1154.13C443.39,1154.19 443.39,1154.22 443.392,1154.23C443.398,1154.26 443.416,1154.28 443.448,1154.28C443.495,1154.28 443.545,1154.24 443.597,1154.17L443.597,1153.17L443.833,1153.17L443.833,1154.48ZM444.731,1154.09C444.731,1154.21 444.722,1154.29 444.707,1154.35C444.675,1154.45 444.612,1154.5 444.518,1154.5C444.434,1154.5 444.353,1154.45 444.274,1154.35L444.274,1154.48L444.038,1154.48L444.038,1152.73L444.274,1152.73L444.274,1153.3C444.35,1153.21 444.431,1153.16 444.518,1153.16C444.612,1153.16 444.675,1153.21 444.707,1153.31C444.723,1153.36 444.731,1153.44 444.731,1153.57L444.731,1154.09ZM445.622,1153.87L445.15,1153.87L445.15,1154.1C445.15,1154.22 445.189,1154.28 445.27,1154.28C445.328,1154.28 445.362,1154.25 445.376,1154.19C445.378,1154.17 445.381,1154.12 445.381,1154.03L445.622,1154.03L445.622,1154.06C445.622,1154.14 445.619,1154.19 445.617,1154.21C445.609,1154.26 445.591,1154.31 445.562,1154.35C445.497,1154.45 445.4,1154.5 445.276,1154.5C445.153,1154.5 445.059,1154.45 444.99,1154.36C444.94,1154.3 444.914,1154.19 444.914,1154.06L444.914,1153.6C444.914,1153.46 444.937,1153.36 444.987,1153.29C445.056,1153.2 445.15,1153.16 445.27,1153.16C445.389,1153.16 445.483,1153.2 445.549,1153.29C445.599,1153.36 445.622,1153.46 445.622,1153.6L445.622,1153.87ZM443.12,1152.97L442.837,1152.97L442.837,1154.48L442.574,1154.48L442.574,1152.97L442.296,1152.97L442.296,1152.73L443.12,1152.73L443.12,1152.97ZM444.392,1153.37C444.353,1153.37 444.313,1153.39 444.274,1153.43L444.274,1154.22C444.313,1154.26 444.353,1154.28 444.392,1154.28C444.46,1154.28 444.495,1154.22 444.495,1154.1L444.495,1153.55C444.495,1153.43 444.46,1153.37 444.392,1153.37ZM445.268,1153.37C445.189,1153.37 445.15,1153.43 445.15,1153.55L445.15,1153.67L445.386,1153.67L445.386,1153.55C445.386,1153.43 445.346,1153.37 445.268,1153.37ZM444.524,1152.19C444.611,1152.19 444.701,1152.13 444.796,1152.02L444.796,1152.17L445.035,1152.17L445.035,1150.85L444.796,1150.85L444.796,1151.86C444.743,1151.93 444.693,1151.97 444.646,1151.97C444.613,1151.97 444.595,1151.95 444.59,1151.91C444.587,1151.91 444.587,1151.88 444.587,1151.82L444.587,1150.85L444.349,1150.85L444.349,1151.89C444.349,1151.99 444.357,1152.05 444.37,1152.09C444.394,1152.16 444.447,1152.19 444.524,1152.19ZM443.8,1152.19C443.919,1152.19 444.012,1152.14 444.078,1152.05C444.128,1151.99 444.152,1151.88 444.152,1151.74L444.152,1151.28C444.152,1151.14 444.128,1151.04 444.078,1150.97C444.012,1150.88 443.919,1150.84 443.8,1150.84C443.681,1150.84 443.588,1150.88 443.522,1150.97C443.471,1151.04 443.447,1151.14 443.447,1151.28L443.447,1151.74C443.447,1151.88 443.471,1151.99 443.522,1152.05C443.588,1152.14 443.681,1152.19 443.8,1152.19ZM442.862,1151.45L442.862,1152.17L443.127,1152.17L443.127,1151.45L443.445,1150.4L443.177,1150.4L442.997,1151.09L442.809,1150.4L442.53,1150.4C442.586,1150.56 442.644,1150.73 442.7,1150.89C442.785,1151.14 442.838,1151.33 442.862,1151.45ZM443.686,1151.23C443.686,1151.11 443.723,1151.05 443.8,1151.05C443.877,1151.05 443.914,1151.11 443.914,1151.23L443.914,1151.79C443.914,1151.91 443.877,1151.97 443.8,1151.97C443.723,1151.97 443.686,1151.91 443.686,1151.79L443.686,1151.23Z" style="fill:rgb(221,221,221);fill-rule:nonzero;"/>
        </g>
    </g>
</svg>
